<mxfile host="app.diagrams.net" agent="Mozilla/5.0 (Windows NT 10.0; Win64; x64) AppleWebKit/537.36 (KHTML, like Gecko) Chrome/130.0.0.0 Safari/537.36" version="24.8.3">
  <diagram name="Page-1" id="RSWoJ9Kkm-8lt1Qq-gJW">
    <mxGraphModel dx="1295" dy="1496" grid="1" gridSize="10" guides="1" tooltips="1" connect="1" arrows="1" fold="1" page="1" pageScale="1" pageWidth="827" pageHeight="1169" math="0" shadow="0">
      <root>
        <mxCell id="0" />
        <mxCell id="1" parent="0" />
        <mxCell id="pZDCTzZSHCqmtILczpqi-3" value="" style="edgeStyle=orthogonalEdgeStyle;rounded=0;orthogonalLoop=1;jettySize=auto;html=1;" edge="1" parent="1" source="pZDCTzZSHCqmtILczpqi-1" target="pZDCTzZSHCqmtILczpqi-2">
          <mxGeometry relative="1" as="geometry" />
        </mxCell>
        <mxCell id="pZDCTzZSHCqmtILczpqi-1" value="Start" style="ellipse;whiteSpace=wrap;html=1;" vertex="1" parent="1">
          <mxGeometry x="200" y="20" width="120" height="80" as="geometry" />
        </mxCell>
        <mxCell id="pZDCTzZSHCqmtILczpqi-5" value="" style="edgeStyle=orthogonalEdgeStyle;rounded=0;orthogonalLoop=1;jettySize=auto;html=1;" edge="1" parent="1" source="pZDCTzZSHCqmtILczpqi-2" target="pZDCTzZSHCqmtILczpqi-4">
          <mxGeometry relative="1" as="geometry" />
        </mxCell>
        <mxCell id="pZDCTzZSHCqmtILczpqi-2" value="init&lt;br&gt;vector&amp;lt;string&amp;gt; books" style="whiteSpace=wrap;html=1;" vertex="1" parent="1">
          <mxGeometry x="200" y="120" width="120" height="60" as="geometry" />
        </mxCell>
        <mxCell id="pZDCTzZSHCqmtILczpqi-15" value="" style="edgeStyle=orthogonalEdgeStyle;rounded=0;orthogonalLoop=1;jettySize=auto;html=1;" edge="1" parent="1" source="pZDCTzZSHCqmtILczpqi-4" target="pZDCTzZSHCqmtILczpqi-14">
          <mxGeometry relative="1" as="geometry" />
        </mxCell>
        <mxCell id="pZDCTzZSHCqmtILczpqi-4" value="init&amp;nbsp;&lt;div&gt;vector&amp;lt;bool&amp;gt; availability&lt;/div&gt;" style="whiteSpace=wrap;html=1;" vertex="1" parent="1">
          <mxGeometry x="200" y="200" width="120" height="60" as="geometry" />
        </mxCell>
        <mxCell id="pZDCTzZSHCqmtILczpqi-17" value="" style="edgeStyle=orthogonalEdgeStyle;rounded=0;orthogonalLoop=1;jettySize=auto;html=1;" edge="1" parent="1" source="pZDCTzZSHCqmtILczpqi-14" target="pZDCTzZSHCqmtILczpqi-16">
          <mxGeometry relative="1" as="geometry" />
        </mxCell>
        <mxCell id="pZDCTzZSHCqmtILczpqi-14" value="Print option" style="shape=parallelogram;perimeter=parallelogramPerimeter;whiteSpace=wrap;html=1;fixedSize=1;" vertex="1" parent="1">
          <mxGeometry x="190" y="280" width="140" height="50" as="geometry" />
        </mxCell>
        <mxCell id="pZDCTzZSHCqmtILczpqi-16" value="init choice" style="shape=parallelogram;perimeter=parallelogramPerimeter;whiteSpace=wrap;html=1;fixedSize=1;" vertex="1" parent="1">
          <mxGeometry x="190" y="350" width="140" height="50" as="geometry" />
        </mxCell>
        <mxCell id="pZDCTzZSHCqmtILczpqi-24" value="" style="edgeStyle=orthogonalEdgeStyle;rounded=0;orthogonalLoop=1;jettySize=auto;html=1;" edge="1" parent="1" source="pZDCTzZSHCqmtILczpqi-18" target="pZDCTzZSHCqmtILczpqi-20">
          <mxGeometry relative="1" as="geometry" />
        </mxCell>
        <mxCell id="pZDCTzZSHCqmtILczpqi-63" value="False" style="edgeLabel;html=1;align=center;verticalAlign=middle;resizable=0;points=[];" vertex="1" connectable="0" parent="pZDCTzZSHCqmtILczpqi-24">
          <mxGeometry x="-0.5165" y="-1" relative="1" as="geometry">
            <mxPoint as="offset" />
          </mxGeometry>
        </mxCell>
        <mxCell id="pZDCTzZSHCqmtILczpqi-28" value="" style="edgeStyle=orthogonalEdgeStyle;rounded=0;orthogonalLoop=1;jettySize=auto;html=1;" edge="1" parent="1" source="pZDCTzZSHCqmtILczpqi-18" target="pZDCTzZSHCqmtILczpqi-27">
          <mxGeometry relative="1" as="geometry" />
        </mxCell>
        <mxCell id="pZDCTzZSHCqmtILczpqi-59" value="True" style="edgeLabel;html=1;align=center;verticalAlign=middle;resizable=0;points=[];" vertex="1" connectable="0" parent="pZDCTzZSHCqmtILczpqi-28">
          <mxGeometry x="-0.1" relative="1" as="geometry">
            <mxPoint as="offset" />
          </mxGeometry>
        </mxCell>
        <mxCell id="pZDCTzZSHCqmtILczpqi-18" value="choice == 1" style="rhombus;whiteSpace=wrap;html=1;" vertex="1" parent="1">
          <mxGeometry x="220" y="430" width="80" height="80" as="geometry" />
        </mxCell>
        <mxCell id="pZDCTzZSHCqmtILczpqi-25" value="" style="edgeStyle=orthogonalEdgeStyle;rounded=0;orthogonalLoop=1;jettySize=auto;html=1;" edge="1" parent="1" source="pZDCTzZSHCqmtILczpqi-20" target="pZDCTzZSHCqmtILczpqi-21">
          <mxGeometry relative="1" as="geometry" />
        </mxCell>
        <mxCell id="pZDCTzZSHCqmtILczpqi-64" value="False" style="edgeLabel;html=1;align=center;verticalAlign=middle;resizable=0;points=[];" vertex="1" connectable="0" parent="pZDCTzZSHCqmtILczpqi-25">
          <mxGeometry x="-0.573" y="3" relative="1" as="geometry">
            <mxPoint as="offset" />
          </mxGeometry>
        </mxCell>
        <mxCell id="pZDCTzZSHCqmtILczpqi-30" value="" style="edgeStyle=orthogonalEdgeStyle;rounded=0;orthogonalLoop=1;jettySize=auto;html=1;" edge="1" parent="1" source="pZDCTzZSHCqmtILczpqi-20" target="pZDCTzZSHCqmtILczpqi-29">
          <mxGeometry relative="1" as="geometry" />
        </mxCell>
        <mxCell id="pZDCTzZSHCqmtILczpqi-60" value="True" style="edgeLabel;html=1;align=center;verticalAlign=middle;resizable=0;points=[];" vertex="1" connectable="0" parent="pZDCTzZSHCqmtILczpqi-30">
          <mxGeometry x="-0.2667" relative="1" as="geometry">
            <mxPoint y="1" as="offset" />
          </mxGeometry>
        </mxCell>
        <mxCell id="pZDCTzZSHCqmtILczpqi-20" value="choice == 2" style="rhombus;whiteSpace=wrap;html=1;" vertex="1" parent="1">
          <mxGeometry x="220" y="544.5" width="80" height="80" as="geometry" />
        </mxCell>
        <mxCell id="pZDCTzZSHCqmtILczpqi-26" value="" style="edgeStyle=orthogonalEdgeStyle;rounded=0;orthogonalLoop=1;jettySize=auto;html=1;" edge="1" parent="1" source="pZDCTzZSHCqmtILczpqi-21" target="pZDCTzZSHCqmtILczpqi-22">
          <mxGeometry relative="1" as="geometry" />
        </mxCell>
        <mxCell id="pZDCTzZSHCqmtILczpqi-65" value="False" style="edgeLabel;html=1;align=center;verticalAlign=middle;resizable=0;points=[];" vertex="1" connectable="0" parent="pZDCTzZSHCqmtILczpqi-26">
          <mxGeometry x="-0.2" relative="1" as="geometry">
            <mxPoint as="offset" />
          </mxGeometry>
        </mxCell>
        <mxCell id="pZDCTzZSHCqmtILczpqi-32" value="" style="edgeStyle=orthogonalEdgeStyle;rounded=0;orthogonalLoop=1;jettySize=auto;html=1;" edge="1" parent="1" source="pZDCTzZSHCqmtILczpqi-21" target="pZDCTzZSHCqmtILczpqi-31">
          <mxGeometry relative="1" as="geometry" />
        </mxCell>
        <mxCell id="pZDCTzZSHCqmtILczpqi-61" value="True" style="edgeLabel;html=1;align=center;verticalAlign=middle;resizable=0;points=[];" vertex="1" connectable="0" parent="pZDCTzZSHCqmtILczpqi-32">
          <mxGeometry x="-0.1" y="2" relative="1" as="geometry">
            <mxPoint as="offset" />
          </mxGeometry>
        </mxCell>
        <mxCell id="pZDCTzZSHCqmtILczpqi-21" value="choice == 3" style="rhombus;whiteSpace=wrap;html=1;" vertex="1" parent="1">
          <mxGeometry x="220" y="660" width="80" height="80" as="geometry" />
        </mxCell>
        <mxCell id="pZDCTzZSHCqmtILczpqi-34" value="" style="edgeStyle=orthogonalEdgeStyle;rounded=0;orthogonalLoop=1;jettySize=auto;html=1;" edge="1" parent="1" source="pZDCTzZSHCqmtILczpqi-22" target="pZDCTzZSHCqmtILczpqi-33">
          <mxGeometry relative="1" as="geometry" />
        </mxCell>
        <mxCell id="pZDCTzZSHCqmtILczpqi-62" value="True" style="edgeLabel;html=1;align=center;verticalAlign=middle;resizable=0;points=[];" vertex="1" connectable="0" parent="pZDCTzZSHCqmtILczpqi-34">
          <mxGeometry x="-0.0571" relative="1" as="geometry">
            <mxPoint as="offset" />
          </mxGeometry>
        </mxCell>
        <mxCell id="pZDCTzZSHCqmtILczpqi-36" value="" style="edgeStyle=orthogonalEdgeStyle;rounded=0;orthogonalLoop=1;jettySize=auto;html=1;" edge="1" parent="1" source="pZDCTzZSHCqmtILczpqi-22" target="pZDCTzZSHCqmtILczpqi-35">
          <mxGeometry relative="1" as="geometry" />
        </mxCell>
        <mxCell id="pZDCTzZSHCqmtILczpqi-66" value="False" style="edgeLabel;html=1;align=center;verticalAlign=middle;resizable=0;points=[];" vertex="1" connectable="0" parent="pZDCTzZSHCqmtILczpqi-36">
          <mxGeometry x="-0.5" y="3" relative="1" as="geometry">
            <mxPoint as="offset" />
          </mxGeometry>
        </mxCell>
        <mxCell id="pZDCTzZSHCqmtILczpqi-22" value="choice == 4" style="rhombus;whiteSpace=wrap;html=1;" vertex="1" parent="1">
          <mxGeometry x="220" y="780" width="80" height="80" as="geometry" />
        </mxCell>
        <mxCell id="pZDCTzZSHCqmtILczpqi-58" style="edgeStyle=orthogonalEdgeStyle;rounded=0;orthogonalLoop=1;jettySize=auto;html=1;entryX=1;entryY=0.5;entryDx=0;entryDy=0;" edge="1" parent="1" source="pZDCTzZSHCqmtILczpqi-27" target="pZDCTzZSHCqmtILczpqi-38">
          <mxGeometry relative="1" as="geometry">
            <Array as="points">
              <mxPoint x="540" y="470" />
              <mxPoint x="540" y="1040" />
            </Array>
          </mxGeometry>
        </mxCell>
        <mxCell id="pZDCTzZSHCqmtILczpqi-27" value="listBooks" style="shape=process;whiteSpace=wrap;html=1;backgroundOutline=1;" vertex="1" parent="1">
          <mxGeometry x="360" y="440" width="120" height="60" as="geometry" />
        </mxCell>
        <mxCell id="pZDCTzZSHCqmtILczpqi-29" value="borrowBook" style="shape=process;whiteSpace=wrap;html=1;backgroundOutline=1;" vertex="1" parent="1">
          <mxGeometry x="360" y="554.5" width="120" height="60" as="geometry" />
        </mxCell>
        <mxCell id="pZDCTzZSHCqmtILczpqi-56" style="edgeStyle=orthogonalEdgeStyle;rounded=0;orthogonalLoop=1;jettySize=auto;html=1;entryX=1;entryY=0.5;entryDx=0;entryDy=0;" edge="1" parent="1" source="pZDCTzZSHCqmtILczpqi-31" target="pZDCTzZSHCqmtILczpqi-38">
          <mxGeometry relative="1" as="geometry">
            <Array as="points">
              <mxPoint x="540" y="700" />
              <mxPoint x="540" y="1040" />
            </Array>
          </mxGeometry>
        </mxCell>
        <mxCell id="pZDCTzZSHCqmtILczpqi-31" value="reurnBook" style="shape=process;whiteSpace=wrap;html=1;backgroundOutline=1;" vertex="1" parent="1">
          <mxGeometry x="360" y="670" width="120" height="60" as="geometry" />
        </mxCell>
        <mxCell id="pZDCTzZSHCqmtILczpqi-55" style="edgeStyle=orthogonalEdgeStyle;rounded=0;orthogonalLoop=1;jettySize=auto;html=1;entryX=1;entryY=0.5;entryDx=0;entryDy=0;" edge="1" parent="1" source="pZDCTzZSHCqmtILczpqi-33" target="pZDCTzZSHCqmtILczpqi-49">
          <mxGeometry relative="1" as="geometry">
            <Array as="points">
              <mxPoint x="510" y="820" />
              <mxPoint x="510" y="1640" />
            </Array>
          </mxGeometry>
        </mxCell>
        <mxCell id="pZDCTzZSHCqmtILczpqi-33" value="Exiting the system" style="shape=parallelogram;perimeter=parallelogramPerimeter;whiteSpace=wrap;html=1;fixedSize=1;" vertex="1" parent="1">
          <mxGeometry x="360" y="790" width="120" height="60" as="geometry" />
        </mxCell>
        <mxCell id="pZDCTzZSHCqmtILczpqi-37" style="edgeStyle=orthogonalEdgeStyle;rounded=0;orthogonalLoop=1;jettySize=auto;html=1;entryX=0;entryY=0.5;entryDx=0;entryDy=0;" edge="1" parent="1" source="pZDCTzZSHCqmtILczpqi-35" target="pZDCTzZSHCqmtILczpqi-14">
          <mxGeometry relative="1" as="geometry">
            <Array as="points">
              <mxPoint x="120" y="935" />
              <mxPoint x="120" y="305" />
            </Array>
          </mxGeometry>
        </mxCell>
        <mxCell id="pZDCTzZSHCqmtILczpqi-39" value="" style="edgeStyle=orthogonalEdgeStyle;rounded=0;orthogonalLoop=1;jettySize=auto;html=1;" edge="1" parent="1" source="pZDCTzZSHCqmtILczpqi-35" target="pZDCTzZSHCqmtILczpqi-38">
          <mxGeometry relative="1" as="geometry" />
        </mxCell>
        <mxCell id="pZDCTzZSHCqmtILczpqi-35" value="Invalid choice. Please try again" style="shape=parallelogram;perimeter=parallelogramPerimeter;whiteSpace=wrap;html=1;fixedSize=1;" vertex="1" parent="1">
          <mxGeometry x="180" y="900" width="160" height="70" as="geometry" />
        </mxCell>
        <mxCell id="pZDCTzZSHCqmtILczpqi-41" value="" style="edgeStyle=orthogonalEdgeStyle;rounded=0;orthogonalLoop=1;jettySize=auto;html=1;" edge="1" parent="1" source="pZDCTzZSHCqmtILczpqi-38" target="pZDCTzZSHCqmtILczpqi-40">
          <mxGeometry relative="1" as="geometry" />
        </mxCell>
        <mxCell id="pZDCTzZSHCqmtILczpqi-38" value="Do you want to performe another operation?" style="shape=parallelogram;perimeter=parallelogramPerimeter;whiteSpace=wrap;html=1;fixedSize=1;" vertex="1" parent="1">
          <mxGeometry x="175" y="1010" width="170" height="60" as="geometry" />
        </mxCell>
        <mxCell id="pZDCTzZSHCqmtILczpqi-43" value="" style="edgeStyle=orthogonalEdgeStyle;rounded=0;orthogonalLoop=1;jettySize=auto;html=1;" edge="1" parent="1" source="pZDCTzZSHCqmtILczpqi-40" target="pZDCTzZSHCqmtILczpqi-42">
          <mxGeometry relative="1" as="geometry" />
        </mxCell>
        <mxCell id="pZDCTzZSHCqmtILczpqi-40" value="init userCase" style="shape=parallelogram;perimeter=parallelogramPerimeter;whiteSpace=wrap;html=1;fixedSize=1;" vertex="1" parent="1">
          <mxGeometry x="200" y="1109" width="120" height="60" as="geometry" />
        </mxCell>
        <mxCell id="pZDCTzZSHCqmtILczpqi-45" value="" style="edgeStyle=orthogonalEdgeStyle;rounded=0;orthogonalLoop=1;jettySize=auto;html=1;" edge="1" parent="1" source="pZDCTzZSHCqmtILczpqi-42" target="pZDCTzZSHCqmtILczpqi-44">
          <mxGeometry relative="1" as="geometry" />
        </mxCell>
        <mxCell id="pZDCTzZSHCqmtILczpqi-54" value="True" style="edgeLabel;html=1;align=center;verticalAlign=middle;resizable=0;points=[];" vertex="1" connectable="0" parent="pZDCTzZSHCqmtILczpqi-45">
          <mxGeometry x="-0.3558" y="3" relative="1" as="geometry">
            <mxPoint as="offset" />
          </mxGeometry>
        </mxCell>
        <mxCell id="pZDCTzZSHCqmtILczpqi-42" value="userCase == &#39;n&#39; || userCase == &#39;N&#39;" style="rhombus;whiteSpace=wrap;html=1;" vertex="1" parent="1">
          <mxGeometry x="150" y="1210" width="220" height="90" as="geometry" />
        </mxCell>
        <mxCell id="pZDCTzZSHCqmtILczpqi-47" value="" style="edgeStyle=orthogonalEdgeStyle;rounded=0;orthogonalLoop=1;jettySize=auto;html=1;" edge="1" parent="1" source="pZDCTzZSHCqmtILczpqi-44" target="pZDCTzZSHCqmtILczpqi-46">
          <mxGeometry relative="1" as="geometry" />
        </mxCell>
        <mxCell id="pZDCTzZSHCqmtILczpqi-44" value="break" style="whiteSpace=wrap;html=1;" vertex="1" parent="1">
          <mxGeometry x="200" y="1350" width="120" height="60" as="geometry" />
        </mxCell>
        <mxCell id="pZDCTzZSHCqmtILczpqi-48" style="edgeStyle=orthogonalEdgeStyle;rounded=0;orthogonalLoop=1;jettySize=auto;html=1;entryX=0;entryY=0.5;entryDx=0;entryDy=0;" edge="1" parent="1" source="pZDCTzZSHCqmtILczpqi-46" target="pZDCTzZSHCqmtILczpqi-14">
          <mxGeometry relative="1" as="geometry">
            <Array as="points">
              <mxPoint x="70" y="1490" />
              <mxPoint x="70" y="305" />
            </Array>
          </mxGeometry>
        </mxCell>
        <mxCell id="pZDCTzZSHCqmtILczpqi-51" style="edgeStyle=orthogonalEdgeStyle;rounded=0;orthogonalLoop=1;jettySize=auto;html=1;entryX=1;entryY=0.5;entryDx=0;entryDy=0;" edge="1" parent="1" source="pZDCTzZSHCqmtILczpqi-46" target="pZDCTzZSHCqmtILczpqi-49">
          <mxGeometry relative="1" as="geometry">
            <Array as="points">
              <mxPoint x="330" y="1490" />
              <mxPoint x="330" y="1640" />
            </Array>
          </mxGeometry>
        </mxCell>
        <mxCell id="pZDCTzZSHCqmtILczpqi-52" value="False" style="edgeLabel;html=1;align=center;verticalAlign=middle;resizable=0;points=[];" vertex="1" connectable="0" parent="pZDCTzZSHCqmtILczpqi-51">
          <mxGeometry x="-0.122" y="4" relative="1" as="geometry">
            <mxPoint as="offset" />
          </mxGeometry>
        </mxCell>
        <mxCell id="pZDCTzZSHCqmtILczpqi-46" value="while(true)" style="rhombus;whiteSpace=wrap;html=1;" vertex="1" parent="1">
          <mxGeometry x="220" y="1450" width="80" height="80" as="geometry" />
        </mxCell>
        <mxCell id="pZDCTzZSHCqmtILczpqi-49" value="End" style="ellipse;whiteSpace=wrap;html=1;" vertex="1" parent="1">
          <mxGeometry x="215" y="1610" width="90" height="60" as="geometry" />
        </mxCell>
        <mxCell id="pZDCTzZSHCqmtILczpqi-57" style="edgeStyle=orthogonalEdgeStyle;rounded=0;orthogonalLoop=1;jettySize=auto;html=1;entryX=0.955;entryY=0.382;entryDx=0;entryDy=0;entryPerimeter=0;" edge="1" parent="1" source="pZDCTzZSHCqmtILczpqi-29" target="pZDCTzZSHCqmtILczpqi-38">
          <mxGeometry relative="1" as="geometry">
            <Array as="points">
              <mxPoint x="540" y="585" />
              <mxPoint x="540" y="1040" />
              <mxPoint x="337" y="1040" />
            </Array>
          </mxGeometry>
        </mxCell>
        <mxCell id="pZDCTzZSHCqmtILczpqi-69" value="" style="edgeStyle=orthogonalEdgeStyle;rounded=0;orthogonalLoop=1;jettySize=auto;html=1;" edge="1" parent="1" source="pZDCTzZSHCqmtILczpqi-67" target="pZDCTzZSHCqmtILczpqi-68">
          <mxGeometry relative="1" as="geometry" />
        </mxCell>
        <mxCell id="pZDCTzZSHCqmtILczpqi-67" value="listBooks" style="ellipse;whiteSpace=wrap;html=1;" vertex="1" parent="1">
          <mxGeometry x="707" y="20" width="120" height="80" as="geometry" />
        </mxCell>
        <mxCell id="pZDCTzZSHCqmtILczpqi-71" value="" style="edgeStyle=orthogonalEdgeStyle;rounded=0;orthogonalLoop=1;jettySize=auto;html=1;" edge="1" parent="1" source="pZDCTzZSHCqmtILczpqi-68" target="pZDCTzZSHCqmtILczpqi-70">
          <mxGeometry relative="1" as="geometry" />
        </mxCell>
        <mxCell id="pZDCTzZSHCqmtILczpqi-68" value="List of books in the library" style="shape=parallelogram;perimeter=parallelogramPerimeter;whiteSpace=wrap;html=1;fixedSize=1;" vertex="1" parent="1">
          <mxGeometry x="707" y="120" width="120" height="60" as="geometry" />
        </mxCell>
        <mxCell id="pZDCTzZSHCqmtILczpqi-73" value="" style="edgeStyle=orthogonalEdgeStyle;rounded=0;orthogonalLoop=1;jettySize=auto;html=1;" edge="1" parent="1" source="pZDCTzZSHCqmtILczpqi-70" target="pZDCTzZSHCqmtILczpqi-72">
          <mxGeometry relative="1" as="geometry" />
        </mxCell>
        <mxCell id="pZDCTzZSHCqmtILczpqi-70" value="size_t i = 0;" style="whiteSpace=wrap;html=1;" vertex="1" parent="1">
          <mxGeometry x="707" y="210" width="120" height="60" as="geometry" />
        </mxCell>
        <mxCell id="pZDCTzZSHCqmtILczpqi-75" value="" style="edgeStyle=orthogonalEdgeStyle;rounded=0;orthogonalLoop=1;jettySize=auto;html=1;" edge="1" parent="1" source="pZDCTzZSHCqmtILczpqi-72" target="pZDCTzZSHCqmtILczpqi-74">
          <mxGeometry relative="1" as="geometry" />
        </mxCell>
        <mxCell id="pZDCTzZSHCqmtILczpqi-90" value="true" style="edgeLabel;html=1;align=center;verticalAlign=middle;resizable=0;points=[];" vertex="1" connectable="0" parent="pZDCTzZSHCqmtILczpqi-75">
          <mxGeometry x="0.4915" y="-2" relative="1" as="geometry">
            <mxPoint as="offset" />
          </mxGeometry>
        </mxCell>
        <mxCell id="pZDCTzZSHCqmtILczpqi-88" value="" style="edgeStyle=orthogonalEdgeStyle;rounded=0;orthogonalLoop=1;jettySize=auto;html=1;" edge="1" parent="1" source="pZDCTzZSHCqmtILczpqi-72" target="pZDCTzZSHCqmtILczpqi-87">
          <mxGeometry relative="1" as="geometry">
            <Array as="points">
              <mxPoint x="570" y="340" />
              <mxPoint x="570" y="695" />
            </Array>
          </mxGeometry>
        </mxCell>
        <mxCell id="pZDCTzZSHCqmtILczpqi-89" value="false" style="edgeLabel;html=1;align=center;verticalAlign=middle;resizable=0;points=[];" vertex="1" connectable="0" parent="pZDCTzZSHCqmtILczpqi-88">
          <mxGeometry x="-0.2997" y="-3" relative="1" as="geometry">
            <mxPoint as="offset" />
          </mxGeometry>
        </mxCell>
        <mxCell id="pZDCTzZSHCqmtILczpqi-72" value="i &amp;lt; books.size()" style="rhombus;whiteSpace=wrap;html=1;" vertex="1" parent="1">
          <mxGeometry x="713.5" y="300" width="107" height="80" as="geometry" />
        </mxCell>
        <mxCell id="pZDCTzZSHCqmtILczpqi-77" value="" style="edgeStyle=orthogonalEdgeStyle;rounded=0;orthogonalLoop=1;jettySize=auto;html=1;" edge="1" parent="1" source="pZDCTzZSHCqmtILczpqi-74" target="pZDCTzZSHCqmtILczpqi-76">
          <mxGeometry relative="1" as="geometry" />
        </mxCell>
        <mxCell id="pZDCTzZSHCqmtILczpqi-74" value="books[i]" style="shape=parallelogram;perimeter=parallelogramPerimeter;whiteSpace=wrap;html=1;fixedSize=1;" vertex="1" parent="1">
          <mxGeometry x="707" y="401" width="120" height="60" as="geometry" />
        </mxCell>
        <mxCell id="pZDCTzZSHCqmtILczpqi-79" value="" style="edgeStyle=orthogonalEdgeStyle;rounded=0;orthogonalLoop=1;jettySize=auto;html=1;" edge="1" parent="1" source="pZDCTzZSHCqmtILczpqi-76" target="pZDCTzZSHCqmtILczpqi-78">
          <mxGeometry relative="1" as="geometry" />
        </mxCell>
        <mxCell id="pZDCTzZSHCqmtILczpqi-80" value="true" style="edgeLabel;html=1;align=center;verticalAlign=middle;resizable=0;points=[];" vertex="1" connectable="0" parent="pZDCTzZSHCqmtILczpqi-79">
          <mxGeometry x="-0.0571" relative="1" as="geometry">
            <mxPoint as="offset" />
          </mxGeometry>
        </mxCell>
        <mxCell id="pZDCTzZSHCqmtILczpqi-82" value="" style="edgeStyle=orthogonalEdgeStyle;rounded=0;orthogonalLoop=1;jettySize=auto;html=1;" edge="1" parent="1" source="pZDCTzZSHCqmtILczpqi-76" target="pZDCTzZSHCqmtILczpqi-81">
          <mxGeometry relative="1" as="geometry" />
        </mxCell>
        <mxCell id="pZDCTzZSHCqmtILczpqi-83" value="false" style="edgeLabel;html=1;align=center;verticalAlign=middle;resizable=0;points=[];" vertex="1" connectable="0" parent="pZDCTzZSHCqmtILczpqi-82">
          <mxGeometry x="-0.1429" relative="1" as="geometry">
            <mxPoint as="offset" />
          </mxGeometry>
        </mxCell>
        <mxCell id="pZDCTzZSHCqmtILczpqi-85" value="" style="edgeStyle=orthogonalEdgeStyle;rounded=0;orthogonalLoop=1;jettySize=auto;html=1;" edge="1" parent="1" source="pZDCTzZSHCqmtILczpqi-76" target="pZDCTzZSHCqmtILczpqi-84">
          <mxGeometry relative="1" as="geometry" />
        </mxCell>
        <mxCell id="pZDCTzZSHCqmtILczpqi-76" value="availability[i]" style="rhombus;whiteSpace=wrap;html=1;" vertex="1" parent="1">
          <mxGeometry x="727" y="490" width="80" height="80" as="geometry" />
        </mxCell>
        <mxCell id="pZDCTzZSHCqmtILczpqi-78" value="available" style="shape=parallelogram;perimeter=parallelogramPerimeter;whiteSpace=wrap;html=1;fixedSize=1;" vertex="1" parent="1">
          <mxGeometry x="570" y="500" width="120" height="60" as="geometry" />
        </mxCell>
        <mxCell id="pZDCTzZSHCqmtILczpqi-81" value="borrowed" style="shape=parallelogram;perimeter=parallelogramPerimeter;whiteSpace=wrap;html=1;fixedSize=1;" vertex="1" parent="1">
          <mxGeometry x="860" y="500" width="120" height="60" as="geometry" />
        </mxCell>
        <mxCell id="pZDCTzZSHCqmtILczpqi-86" style="edgeStyle=orthogonalEdgeStyle;rounded=0;orthogonalLoop=1;jettySize=auto;html=1;entryX=1;entryY=0.5;entryDx=0;entryDy=0;" edge="1" parent="1" source="pZDCTzZSHCqmtILczpqi-84" target="pZDCTzZSHCqmtILczpqi-72">
          <mxGeometry relative="1" as="geometry">
            <Array as="points">
              <mxPoint x="990" y="620" />
              <mxPoint x="990" y="340" />
            </Array>
          </mxGeometry>
        </mxCell>
        <mxCell id="pZDCTzZSHCqmtILczpqi-84" value="i++" style="whiteSpace=wrap;html=1;" vertex="1" parent="1">
          <mxGeometry x="735.5" y="600" width="63" height="40" as="geometry" />
        </mxCell>
        <mxCell id="pZDCTzZSHCqmtILczpqi-87" value="return" style="ellipse;whiteSpace=wrap;html=1;" vertex="1" parent="1">
          <mxGeometry x="735.5" y="670" width="70" height="50" as="geometry" />
        </mxCell>
        <mxCell id="pZDCTzZSHCqmtILczpqi-93" value="" style="edgeStyle=orthogonalEdgeStyle;rounded=0;orthogonalLoop=1;jettySize=auto;html=1;" edge="1" parent="1" source="pZDCTzZSHCqmtILczpqi-91" target="pZDCTzZSHCqmtILczpqi-92">
          <mxGeometry relative="1" as="geometry" />
        </mxCell>
        <mxCell id="pZDCTzZSHCqmtILczpqi-91" value="borrowBook" style="ellipse;whiteSpace=wrap;html=1;" vertex="1" parent="1">
          <mxGeometry x="1190" y="20" width="120" height="80" as="geometry" />
        </mxCell>
        <mxCell id="pZDCTzZSHCqmtILczpqi-95" value="" style="edgeStyle=orthogonalEdgeStyle;rounded=0;orthogonalLoop=1;jettySize=auto;html=1;" edge="1" parent="1" source="pZDCTzZSHCqmtILczpqi-92" target="pZDCTzZSHCqmtILczpqi-94">
          <mxGeometry relative="1" as="geometry" />
        </mxCell>
        <mxCell id="pZDCTzZSHCqmtILczpqi-92" value="int index;" style="whiteSpace=wrap;html=1;" vertex="1" parent="1">
          <mxGeometry x="1190" y="120" width="120" height="60" as="geometry" />
        </mxCell>
        <mxCell id="pZDCTzZSHCqmtILczpqi-97" value="" style="edgeStyle=orthogonalEdgeStyle;rounded=0;orthogonalLoop=1;jettySize=auto;html=1;" edge="1" parent="1" source="pZDCTzZSHCqmtILczpqi-94" target="pZDCTzZSHCqmtILczpqi-96">
          <mxGeometry relative="1" as="geometry" />
        </mxCell>
        <mxCell id="pZDCTzZSHCqmtILczpqi-94" value="Enter the number of the book you want to borrow" style="shape=parallelogram;perimeter=parallelogramPerimeter;whiteSpace=wrap;html=1;fixedSize=1;" vertex="1" parent="1">
          <mxGeometry x="1165" y="200" width="170" height="60" as="geometry" />
        </mxCell>
        <mxCell id="pZDCTzZSHCqmtILczpqi-99" value="" style="edgeStyle=orthogonalEdgeStyle;rounded=0;orthogonalLoop=1;jettySize=auto;html=1;" edge="1" parent="1" source="pZDCTzZSHCqmtILczpqi-96" target="pZDCTzZSHCqmtILczpqi-98">
          <mxGeometry relative="1" as="geometry" />
        </mxCell>
        <mxCell id="pZDCTzZSHCqmtILczpqi-96" value="index" style="shape=parallelogram;perimeter=parallelogramPerimeter;whiteSpace=wrap;html=1;fixedSize=1;" vertex="1" parent="1">
          <mxGeometry x="1190" y="280" width="120" height="60" as="geometry" />
        </mxCell>
        <mxCell id="pZDCTzZSHCqmtILczpqi-101" value="" style="edgeStyle=orthogonalEdgeStyle;rounded=0;orthogonalLoop=1;jettySize=auto;html=1;" edge="1" parent="1" source="pZDCTzZSHCqmtILczpqi-98" target="pZDCTzZSHCqmtILczpqi-100">
          <mxGeometry relative="1" as="geometry" />
        </mxCell>
        <mxCell id="pZDCTzZSHCqmtILczpqi-110" value="true" style="edgeLabel;html=1;align=center;verticalAlign=middle;resizable=0;points=[];" vertex="1" connectable="0" parent="pZDCTzZSHCqmtILczpqi-101">
          <mxGeometry x="0.1065" relative="1" as="geometry">
            <mxPoint as="offset" />
          </mxGeometry>
        </mxCell>
        <mxCell id="pZDCTzZSHCqmtILczpqi-112" value="" style="edgeStyle=orthogonalEdgeStyle;rounded=0;orthogonalLoop=1;jettySize=auto;html=1;" edge="1" parent="1" source="pZDCTzZSHCqmtILczpqi-98" target="pZDCTzZSHCqmtILczpqi-111">
          <mxGeometry relative="1" as="geometry" />
        </mxCell>
        <mxCell id="pZDCTzZSHCqmtILczpqi-150" value="false" style="edgeLabel;html=1;align=center;verticalAlign=middle;resizable=0;points=[];" vertex="1" connectable="0" parent="pZDCTzZSHCqmtILczpqi-112">
          <mxGeometry x="0.1009" y="-4" relative="1" as="geometry">
            <mxPoint y="1" as="offset" />
          </mxGeometry>
        </mxCell>
        <mxCell id="pZDCTzZSHCqmtILczpqi-98" value="index &amp;gt; 0 &amp;amp;&amp;amp; index &amp;lt;= availablility.size()" style="rhombus;whiteSpace=wrap;html=1;" vertex="1" parent="1">
          <mxGeometry x="1120" y="370" width="260" height="80" as="geometry" />
        </mxCell>
        <mxCell id="pZDCTzZSHCqmtILczpqi-103" value="" style="edgeStyle=orthogonalEdgeStyle;rounded=0;orthogonalLoop=1;jettySize=auto;html=1;" edge="1" parent="1" source="pZDCTzZSHCqmtILczpqi-100" target="pZDCTzZSHCqmtILczpqi-102">
          <mxGeometry relative="1" as="geometry" />
        </mxCell>
        <mxCell id="pZDCTzZSHCqmtILczpqi-109" value="true" style="edgeLabel;html=1;align=center;verticalAlign=middle;resizable=0;points=[];" vertex="1" connectable="0" parent="pZDCTzZSHCqmtILczpqi-103">
          <mxGeometry x="0.2513" y="-3" relative="1" as="geometry">
            <mxPoint x="6" y="1" as="offset" />
          </mxGeometry>
        </mxCell>
        <mxCell id="pZDCTzZSHCqmtILczpqi-107" value="" style="edgeStyle=orthogonalEdgeStyle;rounded=0;orthogonalLoop=1;jettySize=auto;html=1;" edge="1" parent="1" source="pZDCTzZSHCqmtILczpqi-100" target="pZDCTzZSHCqmtILczpqi-106">
          <mxGeometry relative="1" as="geometry" />
        </mxCell>
        <mxCell id="pZDCTzZSHCqmtILczpqi-108" value="false" style="edgeLabel;html=1;align=center;verticalAlign=middle;resizable=0;points=[];" vertex="1" connectable="0" parent="pZDCTzZSHCqmtILczpqi-107">
          <mxGeometry x="0.1378" y="-1" relative="1" as="geometry">
            <mxPoint as="offset" />
          </mxGeometry>
        </mxCell>
        <mxCell id="pZDCTzZSHCqmtILczpqi-100" value="availability[index - 1]" style="rhombus;whiteSpace=wrap;html=1;" vertex="1" parent="1">
          <mxGeometry x="1155" y="484.5" width="190" height="60" as="geometry" />
        </mxCell>
        <mxCell id="pZDCTzZSHCqmtILczpqi-105" value="" style="edgeStyle=orthogonalEdgeStyle;rounded=0;orthogonalLoop=1;jettySize=auto;html=1;" edge="1" parent="1" source="pZDCTzZSHCqmtILczpqi-102" target="pZDCTzZSHCqmtILczpqi-104">
          <mxGeometry relative="1" as="geometry" />
        </mxCell>
        <mxCell id="pZDCTzZSHCqmtILczpqi-102" value="availability[index - 1] = false" style="whiteSpace=wrap;html=1;" vertex="1" parent="1">
          <mxGeometry x="1170" y="570" width="160" height="60" as="geometry" />
        </mxCell>
        <mxCell id="pZDCTzZSHCqmtILczpqi-116" style="edgeStyle=orthogonalEdgeStyle;rounded=0;orthogonalLoop=1;jettySize=auto;html=1;" edge="1" parent="1" source="pZDCTzZSHCqmtILczpqi-104" target="pZDCTzZSHCqmtILczpqi-114">
          <mxGeometry relative="1" as="geometry" />
        </mxCell>
        <mxCell id="pZDCTzZSHCqmtILczpqi-104" value="Book successfully borrowed" style="shape=parallelogram;perimeter=parallelogramPerimeter;whiteSpace=wrap;html=1;fixedSize=1;" vertex="1" parent="1">
          <mxGeometry x="1180" y="650" width="140" height="60" as="geometry" />
        </mxCell>
        <mxCell id="pZDCTzZSHCqmtILczpqi-115" style="edgeStyle=orthogonalEdgeStyle;rounded=0;orthogonalLoop=1;jettySize=auto;html=1;entryX=0;entryY=0.5;entryDx=0;entryDy=0;" edge="1" parent="1" source="pZDCTzZSHCqmtILczpqi-106" target="pZDCTzZSHCqmtILczpqi-114">
          <mxGeometry relative="1" as="geometry">
            <Array as="points">
              <mxPoint x="1070" y="790" />
            </Array>
          </mxGeometry>
        </mxCell>
        <mxCell id="pZDCTzZSHCqmtILczpqi-106" value="This book is already borrowed" style="shape=parallelogram;perimeter=parallelogramPerimeter;whiteSpace=wrap;html=1;fixedSize=1;" vertex="1" parent="1">
          <mxGeometry x="1010" y="650" width="120" height="60" as="geometry" />
        </mxCell>
        <mxCell id="pZDCTzZSHCqmtILczpqi-117" style="edgeStyle=orthogonalEdgeStyle;rounded=0;orthogonalLoop=1;jettySize=auto;html=1;entryX=1;entryY=0.5;entryDx=0;entryDy=0;" edge="1" parent="1" source="pZDCTzZSHCqmtILczpqi-111" target="pZDCTzZSHCqmtILczpqi-114">
          <mxGeometry relative="1" as="geometry">
            <Array as="points">
              <mxPoint x="1485" y="790" />
            </Array>
          </mxGeometry>
        </mxCell>
        <mxCell id="pZDCTzZSHCqmtILczpqi-111" value="Invalid book number" style="shape=parallelogram;perimeter=parallelogramPerimeter;whiteSpace=wrap;html=1;fixedSize=1;" vertex="1" parent="1">
          <mxGeometry x="1410" y="650" width="150" height="60" as="geometry" />
        </mxCell>
        <mxCell id="pZDCTzZSHCqmtILczpqi-114" value="return" style="ellipse;whiteSpace=wrap;html=1;" vertex="1" parent="1">
          <mxGeometry x="1190" y="750" width="120" height="80" as="geometry" />
        </mxCell>
        <mxCell id="pZDCTzZSHCqmtILczpqi-129" value="" style="edgeStyle=orthogonalEdgeStyle;rounded=0;orthogonalLoop=1;jettySize=auto;html=1;" edge="1" parent="1" source="pZDCTzZSHCqmtILczpqi-118" target="pZDCTzZSHCqmtILczpqi-125">
          <mxGeometry relative="1" as="geometry" />
        </mxCell>
        <mxCell id="pZDCTzZSHCqmtILczpqi-118" value="returnBook" style="ellipse;whiteSpace=wrap;html=1;" vertex="1" parent="1">
          <mxGeometry x="1759" width="120" height="80" as="geometry" />
        </mxCell>
        <mxCell id="pZDCTzZSHCqmtILczpqi-124" value="" style="edgeStyle=orthogonalEdgeStyle;rounded=0;orthogonalLoop=1;jettySize=auto;html=1;" edge="1" parent="1" source="pZDCTzZSHCqmtILczpqi-125" target="pZDCTzZSHCqmtILczpqi-127">
          <mxGeometry relative="1" as="geometry" />
        </mxCell>
        <mxCell id="pZDCTzZSHCqmtILczpqi-125" value="int index;" style="whiteSpace=wrap;html=1;" vertex="1" parent="1">
          <mxGeometry x="1759" y="100" width="120" height="60" as="geometry" />
        </mxCell>
        <mxCell id="pZDCTzZSHCqmtILczpqi-126" value="" style="edgeStyle=orthogonalEdgeStyle;rounded=0;orthogonalLoop=1;jettySize=auto;html=1;" edge="1" parent="1" source="pZDCTzZSHCqmtILczpqi-127" target="pZDCTzZSHCqmtILczpqi-128">
          <mxGeometry relative="1" as="geometry" />
        </mxCell>
        <mxCell id="pZDCTzZSHCqmtILczpqi-127" value="Enter the number of the book you want to return" style="shape=parallelogram;perimeter=parallelogramPerimeter;whiteSpace=wrap;html=1;fixedSize=1;" vertex="1" parent="1">
          <mxGeometry x="1734" y="180" width="170" height="60" as="geometry" />
        </mxCell>
        <mxCell id="pZDCTzZSHCqmtILczpqi-128" value="index" style="shape=parallelogram;perimeter=parallelogramPerimeter;whiteSpace=wrap;html=1;fixedSize=1;" vertex="1" parent="1">
          <mxGeometry x="1759" y="260" width="120" height="60" as="geometry" />
        </mxCell>
        <mxCell id="pZDCTzZSHCqmtILczpqi-130" value="" style="edgeStyle=orthogonalEdgeStyle;rounded=0;orthogonalLoop=1;jettySize=auto;html=1;" edge="1" parent="1" target="pZDCTzZSHCqmtILczpqi-135">
          <mxGeometry relative="1" as="geometry">
            <mxPoint x="1820" y="340" as="sourcePoint" />
          </mxGeometry>
        </mxCell>
        <mxCell id="pZDCTzZSHCqmtILczpqi-131" value="" style="edgeStyle=orthogonalEdgeStyle;rounded=0;orthogonalLoop=1;jettySize=auto;html=1;" edge="1" parent="1" source="pZDCTzZSHCqmtILczpqi-135" target="pZDCTzZSHCqmtILczpqi-140">
          <mxGeometry relative="1" as="geometry" />
        </mxCell>
        <mxCell id="pZDCTzZSHCqmtILczpqi-132" value="true" style="edgeLabel;html=1;align=center;verticalAlign=middle;resizable=0;points=[];" vertex="1" connectable="0" parent="pZDCTzZSHCqmtILczpqi-131">
          <mxGeometry x="0.1065" relative="1" as="geometry">
            <mxPoint as="offset" />
          </mxGeometry>
        </mxCell>
        <mxCell id="pZDCTzZSHCqmtILczpqi-133" value="" style="edgeStyle=orthogonalEdgeStyle;rounded=0;orthogonalLoop=1;jettySize=auto;html=1;" edge="1" parent="1" source="pZDCTzZSHCqmtILczpqi-135" target="pZDCTzZSHCqmtILczpqi-148">
          <mxGeometry relative="1" as="geometry" />
        </mxCell>
        <mxCell id="pZDCTzZSHCqmtILczpqi-134" value="false" style="edgeLabel;html=1;align=center;verticalAlign=middle;resizable=0;points=[];" vertex="1" connectable="0" parent="pZDCTzZSHCqmtILczpqi-133">
          <mxGeometry x="0.075" y="5" relative="1" as="geometry">
            <mxPoint as="offset" />
          </mxGeometry>
        </mxCell>
        <mxCell id="pZDCTzZSHCqmtILczpqi-135" value="index &amp;gt; 0 &amp;amp;&amp;amp; index &amp;lt;= availablility.size()" style="rhombus;whiteSpace=wrap;html=1;" vertex="1" parent="1">
          <mxGeometry x="1690" y="370" width="260" height="80" as="geometry" />
        </mxCell>
        <mxCell id="pZDCTzZSHCqmtILczpqi-136" value="" style="edgeStyle=orthogonalEdgeStyle;rounded=0;orthogonalLoop=1;jettySize=auto;html=1;" edge="1" parent="1" source="pZDCTzZSHCqmtILczpqi-140" target="pZDCTzZSHCqmtILczpqi-142">
          <mxGeometry relative="1" as="geometry" />
        </mxCell>
        <mxCell id="pZDCTzZSHCqmtILczpqi-137" value="true" style="edgeLabel;html=1;align=center;verticalAlign=middle;resizable=0;points=[];" vertex="1" connectable="0" parent="pZDCTzZSHCqmtILczpqi-136">
          <mxGeometry x="0.2513" y="-3" relative="1" as="geometry">
            <mxPoint x="6" y="1" as="offset" />
          </mxGeometry>
        </mxCell>
        <mxCell id="pZDCTzZSHCqmtILczpqi-138" value="" style="edgeStyle=orthogonalEdgeStyle;rounded=0;orthogonalLoop=1;jettySize=auto;html=1;" edge="1" parent="1" source="pZDCTzZSHCqmtILczpqi-140" target="pZDCTzZSHCqmtILczpqi-146">
          <mxGeometry relative="1" as="geometry" />
        </mxCell>
        <mxCell id="pZDCTzZSHCqmtILczpqi-139" value="false" style="edgeLabel;html=1;align=center;verticalAlign=middle;resizable=0;points=[];" vertex="1" connectable="0" parent="pZDCTzZSHCqmtILczpqi-138">
          <mxGeometry x="0.1378" y="-1" relative="1" as="geometry">
            <mxPoint as="offset" />
          </mxGeometry>
        </mxCell>
        <mxCell id="pZDCTzZSHCqmtILczpqi-140" value="!availability[index - 1]" style="rhombus;whiteSpace=wrap;html=1;" vertex="1" parent="1">
          <mxGeometry x="1725" y="484.5" width="190" height="60" as="geometry" />
        </mxCell>
        <mxCell id="pZDCTzZSHCqmtILczpqi-141" value="" style="edgeStyle=orthogonalEdgeStyle;rounded=0;orthogonalLoop=1;jettySize=auto;html=1;" edge="1" parent="1" source="pZDCTzZSHCqmtILczpqi-142" target="pZDCTzZSHCqmtILczpqi-144">
          <mxGeometry relative="1" as="geometry" />
        </mxCell>
        <mxCell id="pZDCTzZSHCqmtILczpqi-142" value="availability[index - 1] = true" style="whiteSpace=wrap;html=1;" vertex="1" parent="1">
          <mxGeometry x="1740" y="570" width="160" height="60" as="geometry" />
        </mxCell>
        <mxCell id="pZDCTzZSHCqmtILczpqi-143" style="edgeStyle=orthogonalEdgeStyle;rounded=0;orthogonalLoop=1;jettySize=auto;html=1;" edge="1" parent="1" source="pZDCTzZSHCqmtILczpqi-144" target="pZDCTzZSHCqmtILczpqi-149">
          <mxGeometry relative="1" as="geometry" />
        </mxCell>
        <mxCell id="pZDCTzZSHCqmtILczpqi-144" value="Book successfully returned" style="shape=parallelogram;perimeter=parallelogramPerimeter;whiteSpace=wrap;html=1;fixedSize=1;" vertex="1" parent="1">
          <mxGeometry x="1750" y="650" width="140" height="60" as="geometry" />
        </mxCell>
        <mxCell id="pZDCTzZSHCqmtILczpqi-145" style="edgeStyle=orthogonalEdgeStyle;rounded=0;orthogonalLoop=1;jettySize=auto;html=1;entryX=0;entryY=0.5;entryDx=0;entryDy=0;" edge="1" parent="1" source="pZDCTzZSHCqmtILczpqi-146" target="pZDCTzZSHCqmtILczpqi-149">
          <mxGeometry relative="1" as="geometry">
            <Array as="points">
              <mxPoint x="1640" y="790" />
            </Array>
          </mxGeometry>
        </mxCell>
        <mxCell id="pZDCTzZSHCqmtILczpqi-146" value="This book was not borrowed" style="shape=parallelogram;perimeter=parallelogramPerimeter;whiteSpace=wrap;html=1;fixedSize=1;" vertex="1" parent="1">
          <mxGeometry x="1580" y="650" width="120" height="60" as="geometry" />
        </mxCell>
        <mxCell id="pZDCTzZSHCqmtILczpqi-147" style="edgeStyle=orthogonalEdgeStyle;rounded=0;orthogonalLoop=1;jettySize=auto;html=1;entryX=1;entryY=0.5;entryDx=0;entryDy=0;" edge="1" parent="1" source="pZDCTzZSHCqmtILczpqi-148" target="pZDCTzZSHCqmtILczpqi-149">
          <mxGeometry relative="1" as="geometry">
            <Array as="points">
              <mxPoint x="2055" y="790" />
            </Array>
          </mxGeometry>
        </mxCell>
        <mxCell id="pZDCTzZSHCqmtILczpqi-148" value="Invalid book number" style="shape=parallelogram;perimeter=parallelogramPerimeter;whiteSpace=wrap;html=1;fixedSize=1;" vertex="1" parent="1">
          <mxGeometry x="1980" y="650" width="150" height="60" as="geometry" />
        </mxCell>
        <mxCell id="pZDCTzZSHCqmtILczpqi-149" value="return" style="ellipse;whiteSpace=wrap;html=1;" vertex="1" parent="1">
          <mxGeometry x="1760" y="750" width="120" height="80" as="geometry" />
        </mxCell>
      </root>
    </mxGraphModel>
  </diagram>
</mxfile>
